<svg xmlns="http://www.w3.org/2000/svg" style="display: none">
  <symbol viewBox="0 0 92.833 92.833" id="menu">
    <title>menu</title>
    <path d="M89.834 1.75H3c-1.654 0-3 1.346-3 3v13.334c0 1.654 1.346 3 3 3h86.833c1.653 0 3-1.346 3-3V4.75a3.002 3.002 0 0 0-2.999-3zM89.834 36.75H3c-1.654 0-3 1.346-3 3v13.334c0 1.654 1.346 3 3 3h86.833c1.653 0 3-1.346 3-3V39.75a3.002 3.002 0 0 0-2.999-3zM89.834 71.75H3c-1.654 0-3 1.346-3 3v13.334c0 1.654 1.346 3 3 3h86.833c1.653 0 3-1.346 3-3V74.75a3.002 3.002 0 0 0-2.999-3z"/>
  </symbol>
  <symbol viewBox="0 0 512 512" id="boletim">
    <title>boletim</title>
    <path d="M472.384 64.448l-213.333-64a10.69 10.69 0 0 0-6.123 0l-213.333 64C35.072 65.792 32 69.952 32 74.667v234.667c0 94.336 143.829 178.219 220.843 202.197 1.024.32 2.112.469 3.157.469s2.155-.149 3.157-.469C336.149 487.573 480 403.669 480 309.333V74.667c-.021-4.715-3.115-8.875-7.616-10.219zm-123.52 209.771l-38.784 38.784 9.301 55.723a10.741 10.741 0 0 1 1.045 4.608c0 5.888-4.779 10.667-10.667 10.667-.085 0-.256.021-.427 0-1.899 0-3.797-.491-5.483-1.515L256 353.771l-47.851 28.715a10.56 10.56 0 0 1-11.477-.341 10.656 10.656 0 0 1-4.523-10.56l9.771-58.603-38.784-38.784a10.647 10.647 0 0 1-2.624-10.795c1.237-3.797 4.48-6.613 8.427-7.253l58.091-9.685 19.115-47.765c3.2-8.107 16.576-8.107 19.797 0l19.115 47.765 58.091 9.685a10.72 10.72 0 0 1 8.427 7.253c1.108 3.818.105 7.978-2.711 10.816zm109.781-128.555L259.051 85.781c-1.003-.299-2.027-.448-3.072-.448s-2.069.149-3.072.448L53.312 145.664V82.603l202.667-60.8 202.667 60.8v63.061z"/>
  </symbol>
</svg>