<svg xmlns="http://www.w3.org/2000/svg" style="display: none">
  <symbol viewBox="0 0 92.833 92.833" id="menu">
    <title>menu</title>
    <path d="M89.834 1.75H3c-1.654 0-3 1.346-3 3v13.334c0 1.654 1.346 3 3 3h86.833c1.653 0 3-1.346 3-3V4.75a3.002 3.002 0 0 0-2.999-3zM89.834 36.75H3c-1.654 0-3 1.346-3 3v13.334c0 1.654 1.346 3 3 3h86.833c1.653 0 3-1.346 3-3V39.75a3.002 3.002 0 0 0-2.999-3zM89.834 71.75H3c-1.654 0-3 1.346-3 3v13.334c0 1.654 1.346 3 3 3h86.833c1.653 0 3-1.346 3-3V74.75a3.002 3.002 0 0 0-2.999-3z"/>
  </symbol>
  <symbol viewBox="0 0 512 512" id="boletim">
    <title>boletim</title>
    <path d="M472.384 64.448l-213.333-64a10.69 10.69 0 0 0-6.123 0l-213.333 64C35.072 65.792 32 69.952 32 74.667v234.667c0 94.336 143.829 178.219 220.843 202.197 1.024.32 2.112.469 3.157.469s2.155-.149 3.157-.469C336.149 487.573 480 403.669 480 309.333V74.667c-.021-4.715-3.115-8.875-7.616-10.219zm-123.52 209.771l-38.784 38.784 9.301 55.723a10.741 10.741 0 0 1 1.045 4.608c0 5.888-4.779 10.667-10.667 10.667-.085 0-.256.021-.427 0-1.899 0-3.797-.491-5.483-1.515L256 353.771l-47.851 28.715a10.56 10.56 0 0 1-11.477-.341 10.656 10.656 0 0 1-4.523-10.56l9.771-58.603-38.784-38.784a10.647 10.647 0 0 1-2.624-10.795c1.237-3.797 4.48-6.613 8.427-7.253l58.091-9.685 19.115-47.765c3.2-8.107 16.576-8.107 19.797 0l19.115 47.765 58.091 9.685a10.72 10.72 0 0 1 8.427 7.253c1.108 3.818.105 7.978-2.711 10.816zm109.781-128.555L259.051 85.781c-1.003-.299-2.027-.448-3.072-.448s-2.069.149-3.072.448L53.312 145.664V82.603l202.667-60.8 202.667 60.8v63.061z"/>
  </symbol>
  <symbol viewBox="0 0 511 511" id="404">
    <title>404</title>
    <path d="M39.5 103c1.97 0 3.91-.8 5.3-2.2 1.4-1.39 2.2-3.33 2.2-5.3a7.51 7.51 0 0 0-7.5-7.5c-1.97 0-3.91.8-5.3 2.2-1.4 1.39-2.2 3.33-2.2 5.3s.8 3.91 2.2 5.3a7.51 7.51 0 0 0 5.3 2.2zM63.5 103c1.97 0 3.91-.8 5.3-2.2 1.4-1.39 2.2-3.33 2.2-5.3s-.8-3.91-2.2-5.3a7.528 7.528 0 0 0-5.3-2.2c-1.97 0-3.91.8-5.3 2.2-1.4 1.39-2.2 3.33-2.2 5.3s.8 3.91 2.2 5.3c1.39 1.4 3.33 2.2 5.3 2.2zM87.5 103c1.97 0 3.91-.8 5.3-2.2 1.4-1.39 2.2-3.33 2.2-5.3s-.8-3.91-2.2-5.3a7.528 7.528 0 0 0-5.3-2.2c-1.97 0-3.91.8-5.3 2.2-1.4 1.39-2.2 3.33-2.2 5.3s.8 3.91 2.2 5.3c1.39 1.4 3.33 2.2 5.3 2.2zM119.5 103h304a7.5 7.5 0 0 0 0-15h-304a7.5 7.5 0 0 0 0 15zM455.5 103h16a7.5 7.5 0 0 0 0-15h-16a7.5 7.5 0 0 0 0 15zM263.5 224h-16c-17.369 0-31.5 14.131-31.5 31.5v48c0 17.369 14.131 31.5 31.5 31.5h16c17.369 0 31.5-14.131 31.5-31.5v-48c0-17.369-14.131-31.5-31.5-31.5zm16.5 79.5c0 9.098-7.402 16.5-16.5 16.5h-16c-9.098 0-16.5-7.402-16.5-16.5v-48c0-9.098 7.402-16.5 16.5-16.5h16c9.098 0 16.5 7.402 16.5 16.5v48zM199.5 296H191v-64.5a7.5 7.5 0 0 0-15 0V296h-38.094l20.709-62.128a7.5 7.5 0 0 0-14.231-4.744l-24 72A7.5 7.5 0 0 0 127.5 311H176v16.5a7.5 7.5 0 0 0 15 0V311h8.5a7.5 7.5 0 0 0 0-15zM383.5 296H375v-64.5a7.5 7.5 0 0 0-15 0V296h-38.094l20.709-62.128a7.5 7.5 0 0 0-14.231-4.744l-24 72A7.5 7.5 0 0 0 311.5 311H360v16.5a7.5 7.5 0 0 0 15 0V311h8.5a7.5 7.5 0 0 0 0-15z"/>
    <path d="M471.5 56h-432C17.72 56 0 73.72 0 95.5v320C0 437.28 17.72 455 39.5 455h432c21.78 0 39.5-17.72 39.5-39.5v-320c0-21.78-17.72-39.5-39.5-39.5zm-432 15h432c13.509 0 24.5 10.991 24.5 24.5V120H15V95.5C15 81.991 25.991 71 39.5 71zm432 369h-432C25.991 440 15 429.009 15 415.5V135h481v280.5c0 13.509-10.991 24.5-24.5 24.5z"/>
  </symbol>
  <symbol viewBox="0 0 512 512" id="home">
    <title>home</title>
    <path d="M506.555 208.064L263.859 30.367a13.3 13.3 0 0 0-15.716 0L5.445 208.064c-5.928 4.341-7.216 12.665-2.875 18.593s12.666 7.214 18.593 2.875L256 57.588l234.837 171.943a13.236 13.236 0 0 0 7.848 2.57c4.096 0 8.138-1.885 10.744-5.445 4.342-5.927 3.054-14.251-2.874-18.592z"/>
  <path d="M442.246 232.543c-7.346 0-13.303 5.956-13.303 13.303v211.749H322.521V342.009c0-36.68-29.842-66.52-66.52-66.52s-66.52 29.842-66.52 66.52v115.587H83.058V245.847c0-7.347-5.957-13.303-13.303-13.303s-13.303 5.956-13.303 13.303V470.9c0 7.347 5.957 13.303 13.303 13.303h133.029c6.996 0 12.721-5.405 13.251-12.267.032-.311.052-.651.052-1.036V342.01c0-22.009 17.905-39.914 39.914-39.914s39.914 17.906 39.914 39.914V470.9c0 .383.02.717.052 1.024.524 6.867 6.251 12.279 13.251 12.279h133.029c7.347 0 13.303-5.956 13.303-13.303V245.847c-.001-7.348-5.957-13.304-13.304-13.304z"/>
  </symbol>
  <symbol viewBox="0 0 26.009 26.009" id="power">
    <title>power</title>
    <path d="M17.284 2.033v3.3a9.334 9.334 0 0 1 5.065 8.299c0 5.161-4.184 9.344-9.343 9.344-5.16 0-9.346-4.183-9.346-9.344 0-3.316 1.735-6.223 4.34-7.881V2.32C3.662 4.242.63 8.581.63 13.632c0 6.834 5.539 12.377 12.374 12.377 6.834 0 12.374-5.543 12.374-12.377 0-5.328-3.375-9.853-8.094-11.599z"/>
  <path d="M12.766 15.229c1.359 0 2.457-.803 2.457-1.79V1.795C15.224.804 14.125 0 12.766 0c-1.357 0-2.456.804-2.456 1.795V13.44c.001.987 1.1 1.789 2.456 1.789z"/>
  </symbol>
</svg>