<svg xmlns="http://www.w3.org/2000/svg" style="display: none">
    <symbol viewBox="0 0 92.833 92.833" id="menu">
        <title>menu</title>
        <path d="M89.834 1.75H3c-1.654 0-3 1.346-3 3v13.334c0 1.654 1.346 3 3 3h86.833c1.653 0 3-1.346 3-3V4.75a3.002 3.002 0 0 0-2.999-3zM89.834 36.75H3c-1.654 0-3 1.346-3 3v13.334c0 1.654 1.346 3 3 3h86.833c1.653 0 3-1.346 3-3V39.75a3.002 3.002 0 0 0-2.999-3zM89.834 71.75H3c-1.654 0-3 1.346-3 3v13.334c0 1.654 1.346 3 3 3h86.833c1.653 0 3-1.346 3-3V74.75a3.002 3.002 0 0 0-2.999-3z"/>
    </symbol>
    <symbol viewBox="0 0 512 512" id="boletim">
        <title>boletim</title>
        <path d="M472.384 64.448l-213.333-64a10.69 10.69 0 0 0-6.123 0l-213.333 64C35.072 65.792 32 69.952 32 74.667v234.667c0 94.336 143.829 178.219 220.843 202.197 1.024.32 2.112.469 3.157.469s2.155-.149 3.157-.469C336.149 487.573 480 403.669 480 309.333V74.667c-.021-4.715-3.115-8.875-7.616-10.219zm-123.52 209.771l-38.784 38.784 9.301 55.723a10.741 10.741 0 0 1 1.045 4.608c0 5.888-4.779 10.667-10.667 10.667-.085 0-.256.021-.427 0-1.899 0-3.797-.491-5.483-1.515L256 353.771l-47.851 28.715a10.56 10.56 0 0 1-11.477-.341 10.656 10.656 0 0 1-4.523-10.56l9.771-58.603-38.784-38.784a10.647 10.647 0 0 1-2.624-10.795c1.237-3.797 4.48-6.613 8.427-7.253l58.091-9.685 19.115-47.765c3.2-8.107 16.576-8.107 19.797 0l19.115 47.765 58.091 9.685a10.72 10.72 0 0 1 8.427 7.253c1.108 3.818.105 7.978-2.711 10.816zm109.781-128.555L259.051 85.781c-1.003-.299-2.027-.448-3.072-.448s-2.069.149-3.072.448L53.312 145.664V82.603l202.667-60.8 202.667 60.8v63.061z"/>
    </symbol>
    <symbol viewBox="0 0 511 511" id="404">
        <title>404</title>
        <path d="M39.5 103c1.97 0 3.91-.8 5.3-2.2 1.4-1.39 2.2-3.33 2.2-5.3a7.51 7.51 0 0 0-7.5-7.5c-1.97 0-3.91.8-5.3 2.2-1.4 1.39-2.2 3.33-2.2 5.3s.8 3.91 2.2 5.3a7.51 7.51 0 0 0 5.3 2.2zM63.5 103c1.97 0 3.91-.8 5.3-2.2 1.4-1.39 2.2-3.33 2.2-5.3s-.8-3.91-2.2-5.3a7.528 7.528 0 0 0-5.3-2.2c-1.97 0-3.91.8-5.3 2.2-1.4 1.39-2.2 3.33-2.2 5.3s.8 3.91 2.2 5.3c1.39 1.4 3.33 2.2 5.3 2.2zM87.5 103c1.97 0 3.91-.8 5.3-2.2 1.4-1.39 2.2-3.33 2.2-5.3s-.8-3.91-2.2-5.3a7.528 7.528 0 0 0-5.3-2.2c-1.97 0-3.91.8-5.3 2.2-1.4 1.39-2.2 3.33-2.2 5.3s.8 3.91 2.2 5.3c1.39 1.4 3.33 2.2 5.3 2.2zM119.5 103h304a7.5 7.5 0 0 0 0-15h-304a7.5 7.5 0 0 0 0 15zM455.5 103h16a7.5 7.5 0 0 0 0-15h-16a7.5 7.5 0 0 0 0 15zM263.5 224h-16c-17.369 0-31.5 14.131-31.5 31.5v48c0 17.369 14.131 31.5 31.5 31.5h16c17.369 0 31.5-14.131 31.5-31.5v-48c0-17.369-14.131-31.5-31.5-31.5zm16.5 79.5c0 9.098-7.402 16.5-16.5 16.5h-16c-9.098 0-16.5-7.402-16.5-16.5v-48c0-9.098 7.402-16.5 16.5-16.5h16c9.098 0 16.5 7.402 16.5 16.5v48zM199.5 296H191v-64.5a7.5 7.5 0 0 0-15 0V296h-38.094l20.709-62.128a7.5 7.5 0 0 0-14.231-4.744l-24 72A7.5 7.5 0 0 0 127.5 311H176v16.5a7.5 7.5 0 0 0 15 0V311h8.5a7.5 7.5 0 0 0 0-15zM383.5 296H375v-64.5a7.5 7.5 0 0 0-15 0V296h-38.094l20.709-62.128a7.5 7.5 0 0 0-14.231-4.744l-24 72A7.5 7.5 0 0 0 311.5 311H360v16.5a7.5 7.5 0 0 0 15 0V311h8.5a7.5 7.5 0 0 0 0-15z"/>
        <path d="M471.5 56h-432C17.72 56 0 73.72 0 95.5v320C0 437.28 17.72 455 39.5 455h432c21.78 0 39.5-17.72 39.5-39.5v-320c0-21.78-17.72-39.5-39.5-39.5zm-432 15h432c13.509 0 24.5 10.991 24.5 24.5V120H15V95.5C15 81.991 25.991 71 39.5 71zm432 369h-432C25.991 440 15 429.009 15 415.5V135h481v280.5c0 13.509-10.991 24.5-24.5 24.5z"/>
    </symbol>
    <symbol viewBox="0 0 512 512" id="home">
        <title>home</title>
        <path d="M506.555 208.064L263.859 30.367a13.3 13.3 0 0 0-15.716 0L5.445 208.064c-5.928 4.341-7.216 12.665-2.875 18.593s12.666 7.214 18.593 2.875L256 57.588l234.837 171.943a13.236 13.236 0 0 0 7.848 2.57c4.096 0 8.138-1.885 10.744-5.445 4.342-5.927 3.054-14.251-2.874-18.592z"/>
        <path d="M442.246 232.543c-7.346 0-13.303 5.956-13.303 13.303v211.749H322.521V342.009c0-36.68-29.842-66.52-66.52-66.52s-66.52 29.842-66.52 66.52v115.587H83.058V245.847c0-7.347-5.957-13.303-13.303-13.303s-13.303 5.956-13.303 13.303V470.9c0 7.347 5.957 13.303 13.303 13.303h133.029c6.996 0 12.721-5.405 13.251-12.267.032-.311.052-.651.052-1.036V342.01c0-22.009 17.905-39.914 39.914-39.914s39.914 17.906 39.914 39.914V470.9c0 .383.02.717.052 1.024.524 6.867 6.251 12.279 13.251 12.279h133.029c7.347 0 13.303-5.956 13.303-13.303V245.847c-.001-7.348-5.957-13.304-13.304-13.304z"/>
    </symbol>
    <symbol viewBox="0 0 26.009 26.009" id="power">
        <title>power</title>
        <path d="M17.284 2.033v3.3a9.334 9.334 0 0 1 5.065 8.299c0 5.161-4.184 9.344-9.343 9.344-5.16 0-9.346-4.183-9.346-9.344 0-3.316 1.735-6.223 4.34-7.881V2.32C3.662 4.242.63 8.581.63 13.632c0 6.834 5.539 12.377 12.374 12.377 6.834 0 12.374-5.543 12.374-12.377 0-5.328-3.375-9.853-8.094-11.599z"/>
        <path d="M12.766 15.229c1.359 0 2.457-.803 2.457-1.79V1.795C15.224.804 14.125 0 12.766 0c-1.357 0-2.456.804-2.456 1.795V13.44c.001.987 1.1 1.789 2.456 1.789z"/>
    </symbol>
    <symbol viewBox="0 0 350 350" id="user">
        <title>user</title>
        <path d="M175 171.173c38.914 0 70.463-38.318 70.463-85.586C245.463 38.318 235.105 0 175 0s-70.465 38.318-70.465 85.587c0 47.268 31.549 85.586 70.465 85.586zM41.909 301.853c-.012-2.882-.024-.812 0 0zM308.085 304.104c.038-.789.013-5.474 0 0z"/>
        <path d="M307.935 298.397c-1.305-82.342-12.059-105.805-94.352-120.657 0 0-11.584 14.761-38.584 14.761s-38.586-14.761-38.586-14.761C55.018 192.43 43.61 215.545 42.11 295.722c-.123 6.547-.18 6.891-.202 6.131.005 1.424.011 4.058.011 8.651 0 0 19.592 39.496 133.08 39.496 113.486 0 133.08-39.496 133.08-39.496 0-2.951.002-5.003.005-6.399-.022.47-.066-.441-.149-5.708z"/>
    </symbol>
    <symbol viewBox="0 0 60 60" id="folder">
        <title>folder</title>
        <path d="M14 23.5a.566.566 0 0 0-.545.417L2 52.5v1c0 .734-.047 1 .565 1h44.759c1.156 0 2.174-.779 2.45-1.813L60 24.5v-1H14z"/>
        <path d="M12.731 21.5H54v-6.268a2.735 2.735 0 0 0-2.732-2.732H26.515l-5-7H2.732A2.736 2.736 0 0 0 0 8.232v41.796l10.282-26.717c.275-1.032 1.293-1.811 2.449-1.811z"/>
    </symbol>
    <symbol viewBox="0 0 299.995 299.995" id="clock">
        <title>clock</title>
        <path d="M149.995 0C67.156 0 0 67.158 0 149.995s67.156 150 149.995 150 150-67.163 150-150S232.834 0 149.995 0zm64.847 178.524H151.25c-.215 0-.415-.052-.628-.06-.213.01-.412.06-.628.06-5.729 0-10.374-4.645-10.374-10.374V62.249c0-5.729 4.645-10.374 10.374-10.374s10.374 4.645 10.374 10.374v95.527h54.47c5.729 0 10.374 4.645 10.374 10.374 0 5.729-4.641 10.374-10.37 10.374z"/>
    </symbol>
    <symbol viewBox="0 0 900.5 900.5" id="trash">
        <title>trash</title>
        <path d="M176.415 880.5c0 11.046 8.954 20 20 20h507.67c11.046 0 20-8.954 20-20V232.487h-547.67V880.5zM562.75 342.766h75v436.029h-75V342.766zm-150 0h75v436.029h-75V342.766zm-150 0h75v436.029h-75V342.766zM618.825 91.911V20c0-11.046-8.954-20-20-20h-297.15c-11.046 0-20 8.954-20 20v96.911H141.874c-11.046 0-20 8.954-20 20v50.576c0 11.045 8.954 20 20 20h616.752c11.046 0 20-8.955 20-20v-50.576c0-11.046-8.954-20-20-20H618.825v-25zm-75 20.888h-187.15V75h187.15v37.799z"/>
    </symbol>
    <symbol viewBox="0 0 50 50" id="checkbox">
        <title>checkbox</title>
        <path d="M34.564 40.07H5.762V11.276h28.802v1.512l5.762-4.748V5.516H0v40.315h40.326V20.854l-5.762 6.911z"/>
        <path d="M13.255 17.135l-2.224 2.425 14.214 16.383L50 6.248l-1.951-2.079-22.804 18.763z"/>
    </symbol>
    <symbol viewBox="0 0 100 100" preserveAspectRatio="xMidYMid" class="2points" style="background:0 0" id="loader">
        <title>loader</title>
        <circle cy="50" cx="66.547" fill="#111" r="20">
            <animate attributeName="cx" calcMode="linear" values="30;70;30" keyTimes="0;0.5;1" dur="1" begin="-0.5s" repeatCount="indefinite"/>
        </circle>
        <circle cy="50" cx="33.453" fill="#ff8c00" r="20">
            <animate attributeName="cx" calcMode="linear" values="30;70;30" keyTimes="0;0.5;1" dur="1" begin="0s" repeatCount="indefinite"/>
        </circle>
        <circle cy="50" cx="66.547" fill="#111" r="20">
            <animate attributeName="cx" calcMode="linear" values="30;70;30" keyTimes="0;0.5;1" dur="1" begin="-0.5s" repeatCount="indefinite"/>
            <animate attributeName="fill-opacity" values="0;0;1;1" calcMode="discrete" keyTimes="0;0.499;0.5;1" repeatCount="indefinite" dur="1s"/>
        </circle>
    </symbol>
</svg>